<?xml version="1.0" encoding="utf-8"?>
<!-- Generator: Adobe Illustrator 16.0.4, SVG Export Plug-In . SVG Version: 6.00 Build 0)  -->
<!DOCTYPE svg PUBLIC "-//W3C//DTD SVG 1.1//EN" "http://www.w3.org/Graphics/SVG/1.1/DTD/svg11.dtd">
<svg version="1.1" id="Layer_1" xmlns="http://www.w3.org/2000/svg" xmlns:xlink="http://www.w3.org/1999/xlink" x="0px" y="0px"
	 width="478px" height="128px" viewBox="0 0 478 128" enable-background="new 0 0 478 128" xml:space="preserve">
<path fill="#E8ECF0" d="M174.125,67.562c-2.875,2.312-6.418,3.612-9.996,3.612c-7.132,0-13.429-5.969-13.429-13.381
	c0-7.274,5.952-13.196,13.528-13.196c5.903,0,9.149,3.684,10.232,4.85c0,0,1.727-2.134,3.477-3.697
	c-0.697-0.685-1.669-1.719-2.69-2.412c-3.935-2.705-8.363-3.357-11.118-3.357c-10.182,0-18.741,7.694-18.741,17.766
	c0,9.792,8.362,18.045,18.692,18.045c3.919,0,8.317-1.079,12.044-4.042C175.125,70.25,174.625,69.312,174.125,67.562z"/>
<path fill="#E8ECF0" d="M192.798,50.752c9.105,0,13.568,5.757,13.568,12.497c0,6.739-4.463,12.497-13.568,12.497
	s-13.568-5.758-13.568-12.497C179.23,56.509,183.693,50.752,192.798,50.752z M192.798,54.501c-6.472,0-8.837,4.508-8.837,8.748
	c0,4.239,2.365,8.747,8.837,8.747s8.837-4.508,8.837-8.747C201.635,59.009,199.27,54.501,192.798,54.501z"/>
<path fill="#E8ECF0" d="M213.903,67.578c0,2.098,1.696,4.687,7.364,4.687c5.758,0,7.141-2.009,7.141-3.66s-0.848-2.633-4.418-3.124
	l-7.364-0.982c-3.347-0.446-6.338-2.589-6.338-6.204c0-4.731,4.106-7.542,10.667-7.542c7.677,0,11.024,3.303,11.426,7.855h-4.463
	c-0.134-2.365-2.366-4.374-7.007-4.374c-2.856,0-6.159,0.803-6.159,3.57c0,1.562,0.714,2.455,3.883,2.901l6.338,0.848
	c5.892,0.803,8.167,2.901,8.167,6.204c0,5.444-4.597,7.989-11.738,7.989c-5.355,0-11.47-1.384-11.961-8.168H213.903z"/>
<path fill="#E8ECF0" d="M272.5,60.08c0-4.285-2.723-5.579-5.624-5.579c-4.062,0-7.677,1.919-7.677,6.293v14.148h-4.463V60.08
	c0-4.285-2.722-5.579-5.624-5.579c-4.062,0-7.677,2.365-7.677,6.962v13.479h-4.463V51.555h4.463v3.526h0.089
	c2.098-3.258,5.802-4.329,9.149-4.329c3.035,0,6.07,1.25,7.945,4.329c2.142-2.678,4.999-4.329,9.462-4.329
	c2.365,0,8.882,1.116,8.882,8.257v15.934H272.5V60.08z"/>
<path fill="#E8ECF0" d="M286.105,64.588c0.357,4.82,4.641,7.408,8.614,7.408c2.545,0,6.025-0.848,7.543-4.15h4.73
	c-2.23,5.624-7.453,7.9-12.051,7.9c-9.104,0-13.567-5.758-13.567-12.497c0-6.74,4.463-12.497,13.567-12.497
	c6.16,0,12.676,3.57,12.676,13.255v0.581H286.105z M302.887,61.106c-0.67-4.24-3.973-6.605-8.168-6.605
	c-4.105,0-7.81,2.41-8.48,6.605H302.887z"/>
<path fill="#E8ECF0" d="M332.804,71.914h-0.09c-1.74,2.455-5.445,3.795-8.881,3.795c-7.053,0-12.721-4.508-12.721-12.364
	c0-7.855,5.668-12.363,12.721-12.363c3.48,0,7.096,1.25,8.881,4.062c0,0,0.09,0.021,0.09,0c0-9.813,5.541-12.274,5.541-12.274h6.202
	c0,0-7.561,1.532-7.28,15.125c0.001,0.062,0,17.277,0,17.277h-4.463V71.914z M315.843,63.345c0,4.418,2.545,8.614,8.57,8.614
	c6.07,0,8.658-4.195,8.658-8.614c0-5.356-3.436-8.613-8.658-8.613C319.235,54.732,315.843,57.989,315.843,63.345z"/>
<path fill="#E8ECF0" d="M373.429,51.682h4.463c0,0,0.001,17.215,0,17.277c-0.28,13.593,7.28,15.125,7.28,15.125h-6.202
	c0,0-5.541-2.461-5.541-12.275c0-0.021-0.09,0-0.09,0c-1.785,2.812-5.4,4.062-8.881,4.062c-7.053,0-12.721-4.508-12.721-12.363
	s5.668-12.363,12.721-12.363c3.436,0,7.141,1.34,8.881,3.795h0.09V51.682z M365.038,72.121c5.223,0,8.658-3.256,8.658-8.613
	c0-4.418-2.588-8.613-8.658-8.613c-6.025,0-8.57,4.195-8.57,8.613C356.468,68.865,359.86,72.121,365.038,72.121z"/>
<path fill="#E8ECF0" d="M406.728,74.942h-4.463v-3.526h-0.09c-2.098,3.259-5.803,4.33-9.148,4.33c-5.625,0-9.82-2.41-9.82-8.258
	V51.555h4.463v15.041c0,3.437,2.143,5.4,6.918,5.4c4.062,0,7.678-2.365,7.678-6.962V51.555h4.463V74.942z"/>
<path fill="#E8ECF0" d="M415.872,64.588c0.357,4.82,4.641,7.408,8.613,7.408c2.545,0,6.025-0.848,7.543-4.15h4.73
	c-2.23,5.624-7.453,7.9-12.051,7.9c-9.104,0-13.566-5.758-13.566-12.497c0-6.74,4.463-12.497,13.566-12.497
	c6.16,0,12.676,3.57,12.676,13.255v0.581H415.872z M432.653,61.106c-0.67-4.24-3.973-6.605-8.168-6.605
	c-4.105,0-7.811,2.41-8.48,6.605H432.653z"/>
<g>
	<path fill="#E8ECF0" d="M81.256,93.444h-5.205l-1.354,3.094H73l4.806-10.621h1.8l4.804,10.621h-1.8L81.256,93.444z M78.638,87.377
		l-1.993,4.699h4.032L78.638,87.377z"/>
	<path fill="#E8ECF0" d="M87.461,88.087h-0.03v8.451h-1.577V85.917h1.83l6.828,8.448h0.031v-8.448h1.577v10.621h-1.83L87.461,88.087
		z"/>
	<path fill="#E8ECF0" d="M101.655,87.284h-4.016v-1.367h9.608v1.367h-4.015v9.254h-1.577V87.284z"/>
	<path fill="#E8ECF0" d="M108.841,85.917h1.577v10.621h-1.577V85.917z"/>
	<path fill="#E8ECF0" d="M112.962,91.628h5.222v1.548h-5.222V91.628z"/>
	<path fill="#E8ECF0" d="M127.645,93.444h-5.206l-1.354,3.094h-1.697l4.806-10.621h1.799l4.806,10.621h-1.801L127.645,93.444z
		 M125.027,87.377l-1.993,4.699h4.032L125.027,87.377z"/>
	<path fill="#E8ECF0" d="M138.001,90.811h4.878v5.728h-1.13l-0.267-1.518c-0.699,0.816-1.83,1.785-4.076,1.785
		c-4.253,0-5.608-3.066-5.608-5.399c0-4.107,2.811-5.758,5.563-5.758c2.186,0,4.67,0.685,5.34,3.617h-1.666
		c-0.491-1.475-1.592-2.247-3.601-2.247c-2.811,0-4.06,1.992-4.06,4.253c0,3.004,1.918,4.165,4.134,4.165
		c2.306,0,3.808-1.368,3.972-3.259h-3.481V90.811z"/>
	<path fill="#E8ECF0" d="M145.56,85.917h1.576v10.621h-1.576V85.917z"/>
	<path fill="#E8ECF0" d="M151.525,88.087h-0.029v8.451h-1.577V85.917h1.829l6.828,8.448h0.029v-8.448h1.577v10.621h-1.831
		L151.525,88.087z"/>
	<path fill="#E8ECF0" d="M168.65,90.811h4.877v5.728h-1.13l-0.268-1.518c-0.699,0.816-1.83,1.785-4.077,1.785
		c-4.254,0-5.608-3.066-5.608-5.399c0-4.107,2.812-5.758,5.564-5.758c2.186,0,4.671,0.685,5.34,3.617h-1.666
		c-0.491-1.475-1.593-2.247-3.6-2.247c-2.811,0-4.062,1.992-4.062,4.253c0,3.004,1.919,4.165,4.136,4.165
		c2.306,0,3.808-1.368,3.972-3.259h-3.48V90.811z"/>
	<path fill="#E8ECF0" d="M184.227,87.284h-4.016v-1.367h9.609v1.367h-4.016v9.254h-1.577V87.284z"/>
	<path fill="#E8ECF0" d="M200.086,91.538h-7.229v5h-1.577V85.917h1.577v4.254h7.229v-4.254h1.576v10.621h-1.576V91.538z"/>
	<path fill="#E8ECF0" d="M204.312,85.917h6.576c2.128,0,2.9,1.472,2.9,2.825c0,1.294-0.625,2.246-1.784,2.62v0.028
		c0.936,0.134,1.486,1.013,1.546,2.261c0.089,1.979,0.149,2.471,0.506,2.887h-1.667c-0.253-0.298-0.253-0.745-0.328-2.022
		c-0.104-1.905-0.744-2.485-2.052-2.485h-4.121v4.508h-1.577V85.917z M210.292,90.663c1.548,0,1.919-0.937,1.919-1.684
		c0-1.01-0.61-1.695-1.875-1.695h-4.448v3.379H210.292z"/>
	<path fill="#E8ECF0" d="M221.167,85.648c4.269,0,5.907,2.855,5.907,5.58c0,2.722-1.638,5.577-5.907,5.577
		c-4.269,0-5.905-2.855-5.905-5.577C215.263,88.504,216.899,85.648,221.167,85.648z M221.167,87.019
		c-2.426,0-4.329,1.396-4.329,4.21c0,2.812,1.903,4.208,4.329,4.208c2.424,0,4.329-1.396,4.329-4.208
		C225.496,88.415,223.591,87.019,221.167,87.019z"/>
	<path fill="#E8ECF0" d="M229.054,85.917h1.577v6.797c0,1.919,1.28,2.723,3.228,2.723c1.95,0,3.229-0.804,3.229-2.723v-6.797h1.577
		v6.605c0,2.84-1.577,4.283-4.806,4.283c-3.228,0-4.804-1.443-4.804-4.283V85.917z"/>
	<path fill="#E8ECF0" d="M247.039,90.811h4.882v5.728h-1.132l-0.268-1.518c-0.699,0.816-1.832,1.785-4.076,1.785
		c-4.255,0-5.607-3.066-5.607-5.399c0-4.107,2.811-5.758,5.562-5.758c2.188,0,4.672,0.685,5.342,3.617h-1.667
		c-0.491-1.475-1.591-2.247-3.601-2.247c-2.81,0-4.059,1.992-4.059,4.253c0,3.004,1.917,4.165,4.132,4.165
		c2.307,0,3.811-1.368,3.974-3.259h-3.482V90.811z"/>
	<path fill="#E8ECF0" d="M263.271,91.538h-7.228v5h-1.577V85.917h1.577v4.254h7.228v-4.254h1.577v10.621h-1.577V91.538z"/>
	<path fill="#E8ECF0" d="M272.765,85.917h6.575c2.128,0,2.899,1.472,2.899,2.825c0,1.294-0.624,2.246-1.783,2.62v0.028
		c0.937,0.134,1.486,1.013,1.546,2.261c0.09,1.979,0.15,2.471,0.507,2.887h-1.665c-0.255-0.298-0.255-0.745-0.33-2.022
		c-0.104-1.905-0.743-2.485-2.051-2.485h-4.122v4.508h-1.577V85.917z M278.745,90.663c1.547,0,1.919-0.937,1.919-1.684
		c0-1.01-0.61-1.695-1.874-1.695h-4.448v3.379H278.745z"/>
	<path fill="#E8ECF0" d="M284.296,85.917h8.539v1.367h-6.961v3.08h6.752v1.368h-6.752v3.438h7.11v1.368h-8.688V85.917z"/>
	<path fill="#E8ECF0" d="M295.736,93.042c0.03,1.904,1.813,2.395,3.421,2.395c1.683,0,2.872-0.641,2.872-1.799
		c0-0.967-0.761-1.367-1.979-1.579l-2.41-0.4c-1.265-0.209-3.152-0.716-3.152-2.779c0-1.936,1.531-3.23,4.254-3.23
		c2.126,0,4.371,0.776,4.521,3.331h-1.577c-0.133-0.831-0.608-1.961-3.152-1.961c-1.16,0-2.47,0.491-2.47,1.74
		c0,0.654,0.435,1.174,1.739,1.396l2.605,0.447c0.834,0.148,3.198,0.551,3.198,2.722c0,2.706-2.425,3.481-4.567,3.481
		c-2.395,0-4.88-0.833-4.88-3.764H295.736z"/>
	<path fill="#E8ECF0" d="M305.289,85.917h8.537v1.367h-6.961v3.08h6.755v1.368h-6.755v3.438h7.11v1.368h-8.687V85.917z"/>
	<path fill="#E8ECF0" d="M323.111,93.444h-5.208l-1.353,3.094h-1.695l4.803-10.621h1.801l4.807,10.621h-1.8L323.111,93.444z
		 M320.492,87.377l-1.992,4.699h4.029L320.492,87.377z"/>
	<path fill="#E8ECF0" d="M327.71,85.917h6.575c2.125,0,2.899,1.472,2.899,2.825c0,1.294-0.623,2.246-1.785,2.62v0.028
		c0.938,0.134,1.489,1.013,1.547,2.261c0.09,1.979,0.151,2.471,0.506,2.887h-1.665c-0.253-0.298-0.253-0.745-0.328-2.022
		c-0.105-1.905-0.741-2.485-2.053-2.485h-4.12v4.508h-1.576V85.917z M333.688,90.663c1.548,0,1.919-0.937,1.919-1.684
		c0-1.01-0.608-1.695-1.874-1.695h-4.447v3.379H333.688z"/>
	<path fill="#E8ECF0" d="M347.971,89.74c-0.239-1.474-1.399-2.722-3.631-2.722c-2.512,0-4.104,1.442-4.104,4.344
		c0,2.009,1.085,4.074,4.015,4.074c1.86,0,3.273-0.892,3.721-2.959h1.577c-0.253,2.35-2.277,4.328-5.311,4.328
		c-2.679,0-5.579-1.474-5.579-5.608c0-3.093,1.934-5.549,5.563-5.549c2.128,0,5.059,0.908,5.326,4.092H347.971z"/>
	<path fill="#E8ECF0" d="M360.47,91.538h-7.231v5h-1.576V85.917h1.576v4.254h7.231v-4.254h1.576v10.621h-1.576V91.538z"/>
</g>
<polygon fill="#EC0217" points="67.75,44.337 67.726,44.337 67.741,40.22 60.371,40.194 60.357,44.311 56.219,44.297 56.194,51.667 
	60.332,51.681 60.332,51.707 60.316,55.797 67.687,55.824 67.7,51.732 67.725,51.707 71.817,51.72 71.842,44.351 "/>
<g>
	<path fill="#EC0217" d="M126.061,40.618c-4.004-1.638-8.285-1.709-12.159-0.445c-1.817-3.591-4.921-6.54-8.925-8.177
		c-9.073-3.71-19.412,0.68-23.096,9.69l-5.245,12.667c-1.925,3.946-5.613,6.834-9.969,7.739c-7.743,1.61-15.337-3.369-16.947-11.111
		c-1.597-7.677,3.369-15.338,11.111-16.948c4.203-0.874,8.538,0.244,11.864,2.894l4.91-11.973c-5.737-3.436-12.65-4.69-19.348-3.297
		c-14.56,3.027-23.941,17.338-20.914,31.896c3.041,14.625,17.351,24.008,31.911,20.981c8.808-1.831,16.027-7.933,19.401-16.193
		l0.009-0.01l0.228-0.56c0.019-0.048,0.04-0.095,0.059-0.145l4.629-11.157c1.049-2.566,3.983-3.849,6.611-2.774
		c2.565,1.048,3.824,4.045,2.773,6.61l-4.956,12.442c-2.712,5.896-5.771,10.035-10.012,11.786l14.416-0.008
		c0.515-0.155,0.929-0.298,1.273-0.433c2.264-0.758,4.612-3.38,6.931-8.971l4.048-10.032c1.05-2.565,4.047-3.822,6.613-2.774
		c2.562,1.05,3.822,4.046,2.771,6.611l-0.454,1.387l-1.047,2.423c-2.712,5.898-3.606,10.037-7.844,11.786l13.873-0.009
		c0.514-0.155,0.929-0.296,1.273-0.432c2.264-0.757,2.987-3.378,5.306-8.972l0.547-1.319l0.054-0.079
		C139.442,54.703,135.143,44.327,126.061,40.618z"/>
</g>
<path fill="#EC0217" d="M351.008,47.438c2.37-3.188,6.356-4.667,6.356-4.667h-6.202c0,0-3.162,1.397-5.301,4.667H351.008z"/>
<path fill="#E8ECF0" d="M348.334,51.562h-4.702c-0.588,1.696-0.953,3.699-0.953,6.067c0,1.706,0,17.542,0,17.542h4.463
	c0,0,0.001-17.214,0-17.277C347.09,55.398,347.552,53.311,348.334,51.562z"/>
</svg>
